<svg width="111" height="32" viewBox="0 0 111 32" fill="none" xmlns="http://www.w3.org/2000/svg">
<path fill-rule="evenodd" clip-rule="evenodd" d="M60.764 0.259266C57.2216 1.0571 54.9235 2.22776 53.1912 4.11713C50.2516 7.32303 49.8872 12.4805 52.3854 15.5248C54.0324 17.5316 56.7431 18.8273 62.1562 20.1949C65.7981 21.1149 67.1268 21.6342 67.3545 22.2264C68.047 24.0288 66.5429 25.1528 63.4381 25.1528C60.757 25.1528 58.6844 24.1341 57.6588 22.3121C57.3943 21.8419 57.0448 21.4571 56.8826 21.4571C56.7205 21.4571 54.8928 21.8484 52.821 22.3266C50.7493 22.8049 48.8975 23.1962 48.7059 23.1962C48.0658 23.1962 48.1089 23.5764 48.9308 25.1856C50.5262 28.3091 53.1896 30.3522 57.1648 31.5017C58.7023 31.9463 59.3537 32.0006 63.1359 32C67.1943 31.9993 67.4675 31.9722 69.3407 31.3817C73.569 30.0489 76.0633 28.2137 77.4484 25.4165C78.2518 23.7938 78.2668 23.7171 78.2668 21.2516C78.2668 18.9536 78.2148 18.6286 77.6557 17.4353C76.1879 14.3029 72.9908 12.5646 66.0593 11.1298C63.0112 10.4989 62.1188 10.1174 61.6213 9.23261C60.796 7.76412 62.311 6.60541 65.0847 6.58411C67.641 6.56432 69.3206 7.44455 70.4421 9.39174C70.702 9.84305 70.2955 9.89935 76.0368 8.61499C79.6984 7.79607 79.5626 7.96803 78.2555 5.80475C76.8295 3.44495 74.4529 1.68537 71.3001 0.654704C69.7513 0.148613 69.1484 0.0777424 65.8573 0.0155679C63.1986 -0.0346499 61.7641 0.0340464 60.764 0.259266ZM22.533 0.292092C19.8225 0.701009 17.6145 1.89602 15.686 3.99756C14.9617 4.78692 14.3689 5.3454 14.3689 5.23844C14.3689 5.13148 14.5158 4.27713 14.6954 3.33995C14.875 2.40276 15.022 1.49602 15.022 1.32515C15.022 1.06253 14.2324 1.02319 9.96024 1.07253L4.89848 1.1308L3.8809 7.21781C3.32139 10.5657 2.21912 17.1001 1.43166 21.7388C0.644204 26.3776 0 30.3669 0 30.6041C0 31.023 0.15305 31.0348 5.34609 31.0148C9.25159 30.9995 10.7179 30.9245 10.7871 30.7365C10.8857 30.4682 10.9992 29.8167 12.9683 18.1962C14.0033 12.0896 14.2461 11.0013 14.757 10.1757C15.5214 8.9413 16.5708 8.35608 17.7948 8.48195C19.1215 8.61847 19.6986 9.08174 20.0348 10.2809C20.3041 11.2413 20.246 11.78 19.1814 18.1779C18.553 21.9542 17.8139 26.3158 17.5392 27.8702C17.2644 29.4245 17.1068 30.7715 17.1887 30.8632C17.2705 30.9552 19.7313 31.0041 22.6567 30.9719L27.9757 30.9137L28.5612 27.4354C30.5663 15.5233 31.3605 11.1987 31.6426 10.657C32.1484 9.68587 32.7523 9.09435 33.599 8.74108C34.5944 8.32586 35.3391 8.32608 36.1442 8.74173C37.6771 9.53326 37.6758 10.3465 36.1268 19.4438C34.4744 29.1478 34.2238 30.7759 34.3612 30.9128C34.553 31.1046 45.253 31.0304 45.373 30.8367C45.4361 30.7345 45.9869 27.7265 46.5969 24.1519C47.207 20.5773 47.9635 16.1853 48.2781 14.3918C49.0331 10.0898 49.0636 6.68824 48.3632 4.90322C47.0208 1.48123 43.4632 -0.252478 39.0422 0.361006C36.0863 0.771227 33.8744 2.10341 32.0672 4.5617L31.2606 5.6591L30.7067 4.42626C29.9615 2.76755 28.5588 1.36667 27.0969 0.820358C25.8986 0.372745 23.6919 0.117308 22.533 0.292092ZM100.707 0.370354C97.4185 0.958403 95.0653 2.4195 93.3545 4.93518C93.0214 5.42518 92.9851 5.43605 92.9851 5.04388C92.9853 4.80474 93.1098 3.85017 93.262 2.92233C93.4144 1.99472 93.4908 1.18754 93.432 1.12884C93.3733 1.07014 91.0858 1.0221 88.3487 1.0221C83.3788 1.0221 83.3719 1.02275 83.1849 1.51428C83.0817 1.78515 82.6345 4.20626 82.1908 6.89476C81.7473 9.58327 81.0927 13.4461 80.7358 15.4788C80.3792 17.5114 79.8043 20.9353 79.4583 23.0875C79.1126 25.2397 78.6822 27.831 78.5023 28.8461C78.3223 29.8611 78.2513 30.7678 78.3445 30.8609C78.4379 30.9541 80.9078 31.0041 83.8332 30.9719L89.1523 30.9137L89.417 29.6093C89.5625 28.8919 90.1292 25.6147 90.6763 22.3266C92.5677 10.9585 92.6548 10.6315 94.1376 9.33152C95.4367 8.1926 97.6234 8.12695 98.6928 9.19478C99.73 10.2307 99.76 9.87479 97.5431 22.8232C96.8107 27.1017 96.2697 30.6967 96.3413 30.8124C96.5116 31.0874 107.261 31.0948 107.431 30.82C107.541 30.6409 109.453 19.5723 110.605 12.4352C111.267 8.3363 111.12 6.36106 109.988 4.14974C109.357 2.91799 107.543 1.34993 106.144 0.827315C104.772 0.314484 102.219 0.0999165 100.707 0.370354Z" fill="white"/>
</svg>
